<svg width="30" height="31" viewBox="0 0 30 31" fill="none" xmlns="http://www.w3.org/2000/svg">
<g clip-path="url(#clip0_164_17234)">
<path d="M15 30.5C23.2843 30.5 30 23.7843 30 15.5C30 7.21573 23.2843 0.5 15 0.5C6.71573 0.5 0 7.21573 0 15.5C0 23.7843 6.71573 30.5 15 30.5Z" fill="#F3BA2F"/>
<path d="M11.3588 14.0038L15 10.3625L18.6431 14.0056L20.7619 11.8869L15 6.125L9.24 11.885L11.3588 14.0038ZM5.625 15.5L7.74375 13.3812L9.8625 15.5L7.74375 17.6188L5.625 15.5ZM11.3588 16.9963L15 20.6375L18.6431 16.9944L20.7619 19.1122L15 24.875L9.24 19.115L9.23719 19.1122L11.3588 16.9963ZM20.1375 15.5L22.2563 13.3812L24.375 15.5L22.2563 17.6188L20.1375 15.5ZM17.1488 15.4981H17.1506V15.5L15 17.6506L12.8522 15.5037L12.8484 15.5L12.8522 15.4972L13.2281 15.1203L13.4109 14.9375L15 13.3494L17.1497 15.4991L17.1488 15.4981Z" fill="white"/>
</g>
<defs>
<clipPath id="clip0_164_17234">
<rect width="30" height="30" fill="white" transform="translate(0 0.5)"/>
</clipPath>
</defs>
</svg>
