<svg width="30" height="31" viewBox="0 0 30 31" fill="none" xmlns="http://www.w3.org/2000/svg">
<g clip-path="url(#clip0_164_17183)">
<path d="M30 15.5C30 18.4667 29.1203 21.3668 27.4721 23.8336C25.8238 26.3003 23.4812 28.2229 20.7403 29.3582C17.9994 30.4935 14.9834 30.7906 12.0737 30.2118C9.16394 29.633 6.49119 28.2044 4.3934 26.1066C2.29562 24.0088 0.867006 21.3361 0.288228 18.4264C-0.290551 15.5166 0.0064992 12.5006 1.14181 9.75975C2.27713 7.01886 4.19972 4.67618 6.66645 3.02796C9.13319 1.37973 12.0333 0.5 15 0.5C18.9783 0.5 22.7936 2.08035 25.6066 4.8934C28.4197 7.70644 30 11.5218 30 15.5Z" fill="#F7931A"/>
<path fill-rule="evenodd" clip-rule="evenodd" d="M10.6609 7.34952L14.1082 8.2727L14.8786 5.40088L16.6023 5.86861L15.8618 8.62179L17.2677 8.99952L18.0095 6.21633L19.7632 6.68542L19.0077 9.48361C19.0077 9.48361 21.8714 10.1177 22.545 12.4468C23.2186 14.7759 21.0641 15.9991 20.3986 16.0454C20.3986 16.0454 22.9077 17.4213 22.0459 20.1282C21.1841 22.835 18.5386 23.3191 15.7555 22.6986L15 25.6004L13.2464 25.1313L14.0168 22.2745L12.6259 21.8954L11.8555 24.7727L10.1155 24.305L10.8873 21.4413L7.34863 20.4868L8.24045 18.5068C8.24045 18.5068 9.23863 18.7795 9.61636 18.8695C9.99409 18.9595 10.2368 18.5668 10.3432 18.1741C10.4495 17.7813 12.0518 11.2727 12.2032 10.7368C12.3545 10.2009 12.2932 9.78224 11.6577 9.61724C11.0223 9.45224 10.1577 9.19452 10.1577 9.19452L10.6609 7.34952ZM14.1382 15.9691L13.1836 19.7641C13.1836 19.7641 17.9168 21.4727 18.5223 19.0686C19.1277 16.6645 14.1382 15.9691 14.1382 15.9691ZM14.5773 14.1691L15.5141 10.6918C15.5141 10.6918 19.5668 11.4172 19.0677 13.3522C18.5686 15.2872 16.1795 14.5454 14.5773 14.1691Z" fill="white"/>
</g>
<defs>
<clipPath id="clip0_164_17183">
<rect width="30" height="30" fill="white" transform="translate(0 0.5)"/>
</clipPath>
</defs>
</svg>
