<svg width="30" height="31" viewBox="0 0 30 31" fill="none" xmlns="http://www.w3.org/2000/svg">
<g clip-path="url(#clip0_164_17217)">
<path d="M15 30.5C23.2843 30.5 30 23.7843 30 15.5C30 7.21573 23.2843 0.5 15 0.5C6.71573 0.5 0 7.21573 0 15.5C0 23.7843 6.71573 30.5 15 30.5Z" fill="#26A17B"/>
<path fill-rule="evenodd" clip-rule="evenodd" d="M16.8019 16.7968V16.7949C16.6987 16.8024 16.1672 16.8343 14.9812 16.8343C14.0344 16.8343 13.3678 16.8062 13.1334 16.7949V16.7978C9.48844 16.6374 6.76781 16.0028 6.76781 15.2434C6.76781 14.4849 9.48844 13.8503 13.1334 13.6871V16.1659C13.3716 16.1828 14.0541 16.2231 14.9972 16.2231C16.1287 16.2231 16.6959 16.1762 16.8019 16.1668V13.689C20.4394 13.8512 23.1534 14.4859 23.1534 15.2434C23.1534 16.0028 20.4394 16.6356 16.8019 16.7968ZM16.8019 13.4312V11.2131H21.8775V7.83057H8.05781V11.2131H13.1334V13.4303C9.00844 13.6196 5.90625 14.4371 5.90625 15.4159C5.90625 16.3946 9.00844 17.2112 13.1334 17.4015V24.5096H16.8019V17.3996C20.9203 17.2103 24.015 16.3937 24.015 15.4159C24.015 14.4381 20.9203 13.6215 16.8019 13.4312Z" fill="white"/>
</g>
<defs>
<clipPath id="clip0_164_17217">
<rect width="30" height="30" fill="white" transform="translate(0 0.5)"/>
</clipPath>
</defs>
</svg>
